<?xml version="1.0" standalone="no"?><!DOCTYPE svg PUBLIC "-//W3C//DTD SVG 1.1//EN" "http://www.w3.org/Graphics/SVG/1.1/DTD/svg11.dtd"><svg t="1708401794042" class="icon" viewBox="0 0 1024 1024" version="1.1" xmlns="http://www.w3.org/2000/svg" p-id="8532" xmlns:xlink="http://www.w3.org/1999/xlink" width="200" height="200"><path d="M682.666667 768a85.333333 85.333333 0 1 1 170.666666 0 85.333333 85.333333 0 0 1-170.666666 0zM426.666667 768a85.333333 85.333333 0 1 1 170.666666 0 85.333333 85.333333 0 0 1-170.666666 0zM170.666667 768a85.333333 85.333333 0 1 1 170.666666 0 85.333333 85.333333 0 0 1-170.666666 0zM682.666667 512a85.333333 85.333333 0 1 1 170.666666 0 85.333333 85.333333 0 0 1-170.666666 0zM426.666667 512a85.333333 85.333333 0 1 1 170.666666 0 85.333333 85.333333 0 0 1-170.666666 0zM170.666667 512a85.333333 85.333333 0 1 1 170.666666 0 85.333333 85.333333 0 0 1-170.666666 0zM682.666667 256a85.333333 85.333333 0 1 1 170.666666 0 85.333333 85.333333 0 0 1-170.666666 0zM426.666667 256a85.333333 85.333333 0 1 1 170.666666 0 85.333333 85.333333 0 0 1-170.666666 0zM170.666667 256a85.333333 85.333333 0 1 1 170.666666 0 85.333333 85.333333 0 0 1-170.666666 0z" fill="#13227a" p-id="8533"></path></svg>